<mxfile host="Electron" modified="2024-03-12T13:34:19.933Z" agent="Mozilla/5.0 (X11; Linux x86_64) AppleWebKit/537.36 (KHTML, like Gecko) draw.io/24.0.4 Chrome/120.0.6099.109 Electron/28.1.0 Safari/537.36" etag="CFTIRNUuDROLpAGt9thC" version="24.0.4" type="device">
  <diagram name="Page-1" id="ijKU6omm411AxzlGt9A5">
    <mxGraphModel dx="576" dy="321" grid="1" gridSize="10" guides="1" tooltips="1" connect="1" arrows="1" fold="1" page="1" pageScale="1" pageWidth="850" pageHeight="1100" background="none" math="0" shadow="0">
      <root>
        <mxCell id="0" />
        <mxCell id="1" parent="0" />
        <mxCell id="S1cf7kha7homGeD01KqE-4" style="edgeStyle=orthogonalEdgeStyle;rounded=0;orthogonalLoop=1;jettySize=auto;html=1;" edge="1" parent="1" source="S1cf7kha7homGeD01KqE-3">
          <mxGeometry relative="1" as="geometry">
            <mxPoint x="582" y="165" as="targetPoint" />
          </mxGeometry>
        </mxCell>
        <mxCell id="S1cf7kha7homGeD01KqE-3" value="" style="shape=stencil(7VXRboQgEPwaXhuEWNvHhvb+g9O1klMwwPW8vy+62pwR2rR399bEB3fGGdgdIoQL18geCKNadkD4K2GsOw7cmyy8BbhBrMixPGHJ5lK6HkqPWK0GqBB23poDnFTlZ7nSDVjlR5a/EfoSvhkfLkqjdXBQRrsVc8EHM6l00NIBzSgucp6rB8YR6MMSHXiwSGADuz/b5ndxLZ5uYpvdZ7OLz5cvLaLG9Grj53hoMWMuApI6KFzsZXl4t+aoq+h2ejkewg2x0J35gGRayS4Xdav0hZqtm8yu1D/mv9Svd1/8LC9b4yCVY8A3s5vQxMC5qI2Fb5KoVdvinyG15H9WN8xq4eIjnzSbwCYUb4QJ+AQ=);whiteSpace=wrap;html=1;fillColor=#f5f5f5;strokeColor=#666666;gradientColor=none;rotation=0;shadow=1;strokeWidth=2;align=center;verticalAlign=middle;fontFamily=Helvetica;fontSize=12;fontColor=default;connectable=0;" vertex="1" parent="1">
          <mxGeometry x="510" y="100" width="30" height="130" as="geometry" />
        </mxCell>
        <mxCell id="S1cf7kha7homGeD01KqE-5" value="memOut" style="text;html=1;align=center;verticalAlign=middle;resizable=0;points=[];autosize=1;strokeColor=none;fillColor=none;" vertex="1" parent="1">
          <mxGeometry x="571" y="150" width="70" height="30" as="geometry" />
        </mxCell>
        <mxCell id="S1cf7kha7homGeD01KqE-7" value="" style="endArrow=none;html=1;rounded=0;" edge="1" parent="1">
          <mxGeometry width="50" height="50" relative="1" as="geometry">
            <mxPoint x="198" y="145" as="sourcePoint" />
            <mxPoint x="510" y="145" as="targetPoint" />
          </mxGeometry>
        </mxCell>
        <mxCell id="S1cf7kha7homGeD01KqE-8" value="aluOut" style="text;html=1;align=center;verticalAlign=middle;resizable=0;points=[];autosize=1;strokeColor=none;fillColor=none;" vertex="1" parent="1">
          <mxGeometry x="147" y="130" width="60" height="30" as="geometry" />
        </mxCell>
        <mxCell id="S1cf7kha7homGeD01KqE-9" value="&lt;div&gt;&lt;br&gt;&lt;/div&gt;&lt;div&gt;&lt;br&gt;&lt;/div&gt;&lt;div&gt;&lt;br&gt;&lt;/div&gt;&lt;div&gt;&lt;br&gt;&lt;/div&gt;AXI&lt;div&gt;控制器&lt;/div&gt;" style="whiteSpace=wrap;html=1;fillColor=#f5f5f5;strokeColor=#666666;gradientColor=none;rotation=0;shadow=0;strokeWidth=2;align=center;verticalAlign=middle;fontFamily=Helvetica;fontSize=12;fontColor=default;textShadow=0;" vertex="1" parent="1">
          <mxGeometry x="269" y="183" width="127" height="101" as="geometry" />
        </mxCell>
        <mxCell id="S1cf7kha7homGeD01KqE-11" value="读地址&lt;div&gt;写地址&lt;/div&gt;&lt;div&gt;&lt;br&gt;&lt;/div&gt;&lt;div&gt;&lt;br&gt;&lt;/div&gt;&lt;div&gt;写数据&lt;/div&gt;" style="text;html=1;align=center;verticalAlign=middle;resizable=1;points=[];autosize=0;strokeColor=none;fillColor=none;movable=1;rotatable=1;deletable=1;editable=1;locked=0;connectable=0;" vertex="1" parent="1">
          <mxGeometry x="260" y="180" width="60" height="91" as="geometry" />
        </mxCell>
        <mxCell id="S1cf7kha7homGeD01KqE-19" value="" style="shape=flexArrow;endArrow=classic;startArrow=block;html=1;rounded=0;entryX=0.5;entryY=1;entryDx=0;entryDy=0;fillColor=#000000;elbow=vertical;strokeWidth=0;targetPerimeterSpacing=0;startFill=0;startSize=4;endSize=4;" edge="1" parent="1">
          <mxGeometry width="100" height="100" relative="1" as="geometry">
            <mxPoint x="332.38" y="322" as="sourcePoint" />
            <mxPoint x="332.38" y="284" as="targetPoint" />
          </mxGeometry>
        </mxCell>
        <mxCell id="S1cf7kha7homGeD01KqE-20" value="AXI主机仲裁器_P1" style="rounded=0;whiteSpace=wrap;html=1;shadow=1;" vertex="1" parent="1">
          <mxGeometry x="272.5" y="322" width="120" height="37" as="geometry" />
        </mxCell>
        <mxCell id="S1cf7kha7homGeD01KqE-21" value="" style="group" vertex="1" connectable="0" parent="1">
          <mxGeometry x="196" y="240" width="72" height="30" as="geometry" />
        </mxCell>
        <mxCell id="S1cf7kha7homGeD01KqE-16" value="" style="endArrow=none;html=1;rounded=0;" edge="1" parent="S1cf7kha7homGeD01KqE-21">
          <mxGeometry width="50" height="50" relative="1" as="geometry">
            <mxPoint x="42" y="15" as="sourcePoint" />
            <mxPoint x="72" y="15" as="targetPoint" />
          </mxGeometry>
        </mxCell>
        <mxCell id="S1cf7kha7homGeD01KqE-17" value="OP2" style="text;html=1;align=center;verticalAlign=middle;resizable=0;points=[];autosize=1;strokeColor=none;fillColor=none;" vertex="1" parent="S1cf7kha7homGeD01KqE-21">
          <mxGeometry width="50" height="30" as="geometry" />
        </mxCell>
        <mxCell id="S1cf7kha7homGeD01KqE-22" value="&lt;font style=&quot;font-size: 6px;&quot;&gt;掩码生成&lt;/font&gt;" style="whiteSpace=wrap;html=1;fillColor=#f5f5f5;strokeColor=#666666;gradientColor=none;rotation=0;shadow=0;strokeWidth=2;align=center;verticalAlign=middle;fontFamily=Helvetica;fontSize=12;fontColor=default;textShadow=0;connectable=0;" vertex="1" parent="1">
          <mxGeometry x="230" y="220" width="30" height="20" as="geometry" />
        </mxCell>
        <mxCell id="S1cf7kha7homGeD01KqE-23" value="" style="group" vertex="1" connectable="0" parent="1">
          <mxGeometry x="223" y="145" width="30" height="71" as="geometry" />
        </mxCell>
        <mxCell id="S1cf7kha7homGeD01KqE-10" value="" style="edgeStyle=elbowEdgeStyle;orthogonalLoop=1;jettySize=auto;html=1;rounded=0;endArrow=none;endFill=0;" edge="1" parent="S1cf7kha7homGeD01KqE-23">
          <mxGeometry width="100" relative="1" as="geometry">
            <mxPoint x="4" as="sourcePoint" />
            <mxPoint x="47" y="55" as="targetPoint" />
            <Array as="points">
              <mxPoint y="25" />
            </Array>
          </mxGeometry>
        </mxCell>
        <mxCell id="S1cf7kha7homGeD01KqE-14" value="" style="endArrow=none;html=1;rounded=0;edgeStyle=elbowEdgeStyle;" edge="1" parent="S1cf7kha7homGeD01KqE-23">
          <mxGeometry width="50" height="50" relative="1" as="geometry">
            <mxPoint y="55" as="sourcePoint" />
            <mxPoint x="45" y="70" as="targetPoint" />
            <Array as="points">
              <mxPoint y="65" />
            </Array>
          </mxGeometry>
        </mxCell>
        <mxCell id="S1cf7kha7homGeD01KqE-24" value="" style="endArrow=none;html=1;rounded=0;edgeStyle=elbowEdgeStyle;" edge="1" parent="1">
          <mxGeometry width="50" height="50" relative="1" as="geometry">
            <mxPoint x="231" y="224" as="sourcePoint" />
            <mxPoint x="223" y="215" as="targetPoint" />
            <Array as="points">
              <mxPoint x="223" y="219" />
            </Array>
          </mxGeometry>
        </mxCell>
        <mxCell id="S1cf7kha7homGeD01KqE-26" value="" style="endArrow=none;html=1;rounded=0;" edge="1" parent="1">
          <mxGeometry width="50" height="50" relative="1" as="geometry">
            <mxPoint x="260" y="231" as="sourcePoint" />
            <mxPoint x="270" y="231" as="targetPoint" />
          </mxGeometry>
        </mxCell>
        <mxCell id="S1cf7kha7homGeD01KqE-27" value="" style="endArrow=none;html=1;rounded=0;" edge="1" parent="1">
          <mxGeometry width="50" height="50" relative="1" as="geometry">
            <mxPoint x="230" y="235" as="sourcePoint" />
            <mxPoint x="212" y="235" as="targetPoint" />
          </mxGeometry>
        </mxCell>
        <mxCell id="S1cf7kha7homGeD01KqE-28" value="rwLen" style="text;html=1;align=center;verticalAlign=middle;resizable=0;points=[];autosize=1;strokeColor=none;fillColor=none;" vertex="1" parent="1">
          <mxGeometry x="160" y="218" width="60" height="30" as="geometry" />
        </mxCell>
        <mxCell id="S1cf7kha7homGeD01KqE-30" value="&lt;span style=&quot;color: rgb(0, 0, 0); font-family: Helvetica; font-size: 12px; font-style: normal; font-variant-ligatures: normal; font-variant-caps: normal; font-weight: 400; letter-spacing: normal; orphans: 2; text-align: center; text-indent: 0px; text-transform: none; widows: 2; word-spacing: 0px; -webkit-text-stroke-width: 0px; white-space: nowrap; text-decoration-thickness: initial; text-decoration-style: initial; text-decoration-color: initial; float: none; display: inline !important;&quot;&gt;写掩码&lt;/span&gt;" style="text;whiteSpace=wrap;html=1;" vertex="1" parent="1">
          <mxGeometry x="270" y="217" width="40" height="10" as="geometry" />
        </mxCell>
        <mxCell id="S1cf7kha7homGeD01KqE-32" value="&lt;font style=&quot;font-size: 7px;&quot;&gt;符号拓展&lt;/font&gt;" style="whiteSpace=wrap;html=1;fillColor=#f5f5f5;strokeColor=#666666;gradientColor=none;rotation=0;shadow=0;strokeWidth=2;align=center;verticalAlign=middle;fontFamily=Helvetica;fontSize=12;fontColor=default;textShadow=0;connectable=0;" vertex="1" parent="1">
          <mxGeometry x="434" y="245" width="40" height="20" as="geometry" />
        </mxCell>
        <mxCell id="S1cf7kha7homGeD01KqE-33" value="&lt;span style=&quot;font-size: 7px;&quot;&gt;传输对齐&lt;/span&gt;" style="whiteSpace=wrap;html=1;fillColor=#f5f5f5;strokeColor=#666666;gradientColor=none;rotation=0;shadow=0;strokeWidth=2;align=center;verticalAlign=middle;fontFamily=Helvetica;fontSize=12;fontColor=default;textShadow=0;connectable=0;" vertex="1" parent="1">
          <mxGeometry x="420" y="207" width="40" height="20" as="geometry" />
        </mxCell>
        <mxCell id="S1cf7kha7homGeD01KqE-36" value="" style="endArrow=none;html=1;rounded=0;" edge="1" parent="1">
          <mxGeometry width="50" height="50" relative="1" as="geometry">
            <mxPoint x="440" y="245" as="sourcePoint" />
            <mxPoint x="439.94" y="227" as="targetPoint" />
          </mxGeometry>
        </mxCell>
        <mxCell id="S1cf7kha7homGeD01KqE-37" value="" style="endArrow=none;html=1;rounded=0;edgeStyle=elbowEdgeStyle;" edge="1" parent="1">
          <mxGeometry width="50" height="50" relative="1" as="geometry">
            <mxPoint x="474" y="254.93" as="sourcePoint" />
            <mxPoint x="509" y="178" as="targetPoint" />
          </mxGeometry>
        </mxCell>
        <mxCell id="S1cf7kha7homGeD01KqE-38" value="" style="group" vertex="1" connectable="0" parent="1">
          <mxGeometry x="352.5" y="200" width="66.5" height="16" as="geometry" />
        </mxCell>
        <mxCell id="S1cf7kha7homGeD01KqE-34" value="&lt;span style=&quot;color: rgb(0, 0, 0); font-family: Helvetica; font-size: 12px; font-style: normal; font-variant-ligatures: normal; font-variant-caps: normal; font-weight: 400; letter-spacing: normal; orphans: 2; text-align: center; text-indent: 0px; text-transform: none; widows: 2; word-spacing: 0px; -webkit-text-stroke-width: 0px; white-space: nowrap; text-decoration-thickness: initial; text-decoration-style: initial; text-decoration-color: initial; float: none; display: inline !important;&quot;&gt;读数据&lt;/span&gt;" style="text;whiteSpace=wrap;html=1;" vertex="1" parent="S1cf7kha7homGeD01KqE-38">
          <mxGeometry width="40" height="10" as="geometry" />
        </mxCell>
        <mxCell id="S1cf7kha7homGeD01KqE-35" value="" style="endArrow=none;html=1;rounded=0;" edge="1" parent="S1cf7kha7homGeD01KqE-38">
          <mxGeometry width="50" height="50" relative="1" as="geometry">
            <mxPoint x="44.5" y="16" as="sourcePoint" />
            <mxPoint x="66.5" y="16" as="targetPoint" />
          </mxGeometry>
        </mxCell>
        <mxCell id="S1cf7kha7homGeD01KqE-39" value="" style="endArrow=none;html=1;rounded=0;edgeStyle=elbowEdgeStyle;elbow=vertical;" edge="1" parent="1">
          <mxGeometry width="50" height="50" relative="1" as="geometry">
            <mxPoint x="240" y="200" as="sourcePoint" />
            <mxPoint x="430" y="207" as="targetPoint" />
            <Array as="points">
              <mxPoint x="340" y="170" />
            </Array>
          </mxGeometry>
        </mxCell>
        <mxCell id="S1cf7kha7homGeD01KqE-40" value="" style="endArrow=none;html=1;rounded=0;edgeStyle=elbowEdgeStyle;" edge="1" parent="1">
          <mxGeometry width="50" height="50" relative="1" as="geometry">
            <mxPoint x="438" y="207" as="sourcePoint" />
            <mxPoint x="444" y="186" as="targetPoint" />
            <Array as="points">
              <mxPoint x="438" y="200" />
            </Array>
          </mxGeometry>
        </mxCell>
        <mxCell id="S1cf7kha7homGeD01KqE-41" value="&lt;font style=&quot;font-size: 10px;&quot;&gt;读长度&lt;/font&gt;" style="text;html=1;align=center;verticalAlign=middle;resizable=0;points=[];autosize=1;strokeColor=none;fillColor=none;" vertex="1" parent="1">
          <mxGeometry x="434" y="171" width="50" height="30" as="geometry" />
        </mxCell>
        <mxCell id="S1cf7kha7homGeD01KqE-42" value="" style="endArrow=none;html=1;rounded=0;edgeStyle=elbowEdgeStyle;" edge="1" parent="1">
          <mxGeometry width="50" height="50" relative="1" as="geometry">
            <mxPoint x="438" y="197" as="sourcePoint" />
            <mxPoint x="469" y="245" as="targetPoint" />
            <Array as="points">
              <mxPoint x="469" y="221" />
            </Array>
          </mxGeometry>
        </mxCell>
        <mxCell id="S1cf7kha7homGeD01KqE-43" value="&lt;font style=&quot;font-size: 8px;&quot;&gt;符号标识&lt;/font&gt;" style="text;html=1;align=center;verticalAlign=middle;whiteSpace=wrap;rounded=0;" vertex="1" parent="1">
          <mxGeometry x="396" y="270" width="40" height="10" as="geometry" />
        </mxCell>
        <mxCell id="S1cf7kha7homGeD01KqE-45" value="" style="endArrow=none;html=1;rounded=0;edgeStyle=elbowEdgeStyle;" edge="1" parent="1">
          <mxGeometry width="50" height="50" relative="1" as="geometry">
            <mxPoint x="434" y="276" as="sourcePoint" />
            <mxPoint x="445" y="265" as="targetPoint" />
            <Array as="points">
              <mxPoint x="445" y="270" />
            </Array>
          </mxGeometry>
        </mxCell>
        <mxCell id="S1cf7kha7homGeD01KqE-46" value="&lt;font style=&quot;font-size: 10px;&quot;&gt;读使能&lt;/font&gt;" style="text;html=1;align=center;verticalAlign=middle;resizable=0;points=[];autosize=1;strokeColor=none;fillColor=none;" vertex="1" parent="1">
          <mxGeometry x="474" y="90" width="50" height="30" as="geometry" />
        </mxCell>
        <mxCell id="S1cf7kha7homGeD01KqE-47" value="" style="endArrow=none;html=1;rounded=0;edgeStyle=elbowEdgeStyle;" edge="1" parent="1">
          <mxGeometry width="50" height="50" relative="1" as="geometry">
            <mxPoint x="526" y="126" as="sourcePoint" />
            <mxPoint x="515" y="105" as="targetPoint" />
            <Array as="points">
              <mxPoint x="526" y="120" />
            </Array>
          </mxGeometry>
        </mxCell>
      </root>
    </mxGraphModel>
  </diagram>
</mxfile>
